<?xml version="1.0" encoding="UTF-8"?>
<svg version="1.1" xmlns="http://www.w3.org/2000/svg" width="1200" height="1097">
<path d="M0 0 C1.0692572 -0.00794586 2.1385144 -0.01589172 3.24017334 -0.02407837 C24.02852121 -0.14259008 44.52888489 1.69399298 64.875 6.0625 C66.07181396 6.31596191 67.26862793 6.56942383 68.50170898 6.83056641 C112.21991168 16.42422716 153.55703126 35.69441099 189.4375 62.375 C190.01790039 62.80377441 190.59830078 63.23254883 191.19628906 63.67431641 C210.22370277 77.79338454 228.90150818 93.93715613 244.34375 111.94140625 C245.99489737 113.86055702 247.66246807 115.75982659 249.34375 117.65234375 C260.64887902 130.43369672 270.55537086 143.89582583 280.0625 158.0625 C280.76221924 159.10269287 281.46193848 160.14288574 282.18286133 161.21459961 C282.83665771 162.19952393 283.4904541 163.18444824 284.1640625 164.19921875 C284.74752441 165.07666748 285.33098633 165.95411621 285.93212891 166.8581543 C287.3963569 169.30621242 288.4599407 171.70006411 289.4375 174.375 C290.0975 174.375 290.7575 174.375 291.4375 174.375 C291.7068335 173.64611572 291.97616699 172.91723145 292.25366211 172.16625977 C293.41131081 169.43674901 294.73556849 167.1769154 296.37890625 164.71484375 C296.95817871 163.84448486 297.53745117 162.97412598 298.13427734 162.07739258 C298.74996582 161.16497803 299.3656543 160.25256348 300 159.3125 C300.63115723 158.37237061 301.26231445 157.43224121 301.91259766 156.46362305 C306.54913148 149.5976448 311.32068574 142.89368118 316.4375 136.375 C317.06527344 135.56675781 317.69304688 134.75851563 318.33984375 133.92578125 C333.10365992 115.17664046 349.24391444 96.85688996 367.4375 81.375 C368.33597656 80.58738281 369.23445312 79.79976563 370.16015625 78.98828125 C413.52336368 41.23736293 466.84291723 15.2141161 523.3125 4.5625 C524.3442334 4.3675293 525.3759668 4.17255859 526.43896484 3.97167969 C544.44407114 0.77190057 562.23976487 -0.00029611 580.5 0.0625 C582.19168304 0.06573273 582.19168304 0.06573273 583.9175415 0.06903076 C600.2769527 0.11921211 616.30111989 0.4370332 632.4375 3.375 C633.56559082 3.57367676 634.69368164 3.77235352 635.85595703 3.97705078 C704.92863009 16.42635799 773.84904875 50.71421689 818.2109375 106.59765625 C819.67836321 108.42807674 821.1833807 110.22907159 822.7265625 111.99609375 C859.54592189 154.27239403 880.61911389 210.49940408 888.4375 265.375 C888.62513916 266.67622803 888.81277832 267.97745605 889.00610352 269.31811523 C890.95818486 284.26058917 890.79386736 299.30771219 890.75555801 314.34830856 C890.74993658 316.58776675 890.74710292 318.8272174 890.74447632 321.06668091 C890.70437991 344.59973008 890.13459356 367.97601246 887.4375 391.375 C887.35028687 392.1363324 887.26307373 392.89766479 887.17321777 393.68206787 C876.12255967 488.91770126 840.9149891 573.68824227 779.4375 647.375 C778.94620605 647.96539063 778.45491211 648.55578125 777.94873047 649.1640625 C772.58052159 655.60230427 767.1037928 661.92897752 761.46484375 668.1328125 C759.69782801 670.08708424 757.96836471 672.06559737 756.25 674.0625 C744.69182873 687.26863388 732.29429345 699.67681479 719.87646484 712.06640625 C717.51395357 714.42440814 715.15482488 716.78568303 712.79754066 719.14890289 C710.5054898 721.44546239 708.20960505 723.73818146 705.9140625 726.03125 C705.08057281 726.86676392 704.24708313 727.70227783 703.38833618 728.56311035 C699.07727848 732.8570765 694.6972942 737.00143902 690.07406616 740.95861816 C688.09430165 742.67202429 686.25565377 744.49191216 684.4375 746.375 C681.37632747 749.47746002 678.20607732 752.35606424 674.90234375 755.1953125 C671.51765024 758.18843291 668.23199566 761.28326114 664.9375 764.375 C660.4842074 768.55067487 656.01787735 772.68841428 651.390625 776.671875 C648.87137724 778.86865905 646.40647004 781.12189619 643.9375 783.375 C638.4407142 788.38301551 632.87749706 793.29710989 627.21875 798.12109375 C626.02069225 799.1430638 624.8227799 800.16520431 623.625 801.1875 C623.01897949 801.70465576 622.41295898 802.22181152 621.78857422 802.75463867 C618.04717738 805.9597653 614.37651522 809.22693729 610.75 812.5625 C607.25490111 815.77145044 603.6946616 818.83565837 600 821.8125 C595.46433557 825.47071015 591.1804883 829.32242965 586.91821289 833.28881836 C582.83088994 837.06990558 578.55706756 840.57189966 574.21875 844.0625 C571.19730812 846.5747101 568.31308227 849.19900827 565.4375 851.875 C560.84989887 856.14418152 556.10307272 860.13258517 551.21875 864.0625 C548.19730664 866.57471133 545.31309922 869.19902457 542.4375 871.875 C537.82748361 876.1645776 533.05966764 880.17910897 528.15234375 884.12890625 C525.33076505 886.4633059 522.63159288 888.89490598 519.9375 891.375 C516.38079756 894.64918423 512.76588189 897.78142433 509 900.8125 C504.4635327 904.47135769 500.178839 908.32368963 495.91601562 912.29101562 C492.70468772 915.2620119 489.41131211 918.07453832 486 920.8125 C480.57841657 925.17640459 475.50907883 929.8592153 470.421875 934.6015625 C465.82807649 938.88357767 461.0831864 942.97855969 456.296875 947.04296875 C449.71330547 952.64292438 443.2438603 958.3286087 436.91796875 964.21875 C433.4611202 967.4371952 429.95709555 970.58444872 426.38671875 973.67578125 C422.35655909 977.18904669 418.40543932 980.79183056 414.4375 984.375 C404.94211066 992.94962432 404.94211066 992.94962432 400.625 996.6875 C396.45714195 1000.31648348 392.41151636 1004.07328971 388.35839844 1007.82910156 C384.25822801 1011.62608203 380.11778964 1015.37490186 375.95703125 1019.10546875 C371.59904609 1023.03103368 367.28444269 1027.00395935 362.96533203 1030.97216797 C361.46629298 1032.34856272 359.96585924 1033.72341739 358.46484375 1035.09765625 C352.19828115 1040.83520317 345.94693622 1046.58894226 339.70703125 1052.35546875 C337.58195084 1054.31916661 335.45437744 1056.28009374 333.32421875 1058.23828125 C326.47621572 1064.53767255 319.68331821 1070.89321355 312.91333008 1077.27636719 C305.77894842 1084.00193655 298.61152902 1090.69177063 291.4375 1097.375 C288.5602007 1096.06339942 286.42939701 1094.64001299 284.14453125 1092.4609375 C283.52320313 1091.873125 282.901875 1091.2853125 282.26171875 1090.6796875 C281.59785156 1090.04289062 280.93398438 1089.40609375 280.25 1088.75 C278.80860809 1087.38279738 277.36720136 1086.01561039 275.92578125 1084.6484375 C275.18408691 1083.94170898 274.44239258 1083.23498047 273.67822266 1082.50683594 C270.11236687 1079.11426101 266.52396953 1075.74575138 262.9375 1072.375 C261.5168363 1071.03785687 260.09626343 1069.70061722 258.67578125 1068.36328125 C248.94962698 1059.20991177 239.22489939 1050.05834856 229.36328125 1041.05078125 C226.21205371 1038.16881748 223.07351237 1035.27349191 219.9375 1032.375 C211.33595508 1024.429592 202.71498092 1016.50863672 194 1008.6875 C191.13149519 1006.09884932 188.2828069 1003.48906926 185.4375 1000.875 C178.85241087 994.82781222 172.24481728 988.80672234 165.5 982.9375 C161.30585635 979.28562947 157.20655708 975.53233816 153.09765625 971.78515625 C150.24646241 969.20191602 147.35866663 966.66621068 144.453125 964.14453125 C142.15142236 962.12385044 139.88985621 960.06187382 137.625 958 C134.22666448 954.92753227 130.76159477 951.99057378 127.1875 949.125 C122.11407078 945.0261278 117.37680819 940.64260012 112.63208008 936.17504883 C108.31576283 932.13274597 103.83273766 928.37926509 99.21484375 924.68359375 C96.01306942 922.02220327 92.97518068 919.22034915 89.9375 916.375 C85.15438315 911.89579645 80.22934532 907.69048161 75.1171875 903.5859375 C72.30496685 901.2656505 69.61952737 898.84428866 66.9375 896.375 C63.38079756 893.10081577 59.76588189 889.96857567 56 886.9375 C51.46433557 883.27928985 47.1804883 879.42757035 42.91821289 875.46118164 C39.68556025 872.47073 36.37053234 869.63720993 32.9375 866.875 C28.96120574 863.67568278 25.17081702 860.34915055 21.4375 856.875 C16.82748361 852.5854224 12.05966764 848.57089103 7.15234375 844.62109375 C3.37182714 841.49332821 -0.20730875 838.16226117 -3.81640625 834.83984375 C-6.48125166 832.44792703 -9.21081825 830.18245116 -12 827.9375 C-17.12997127 823.79688033 -21.967148 819.4023268 -26.80078125 814.92578125 C-31.33790957 810.73519455 -35.99954851 806.70038522 -40.70703125 802.703125 C-47.29125886 797.10357565 -53.76093387 791.4177859 -60.08642578 785.52685547 C-63.4935146 782.35423297 -66.95157222 779.25950203 -70.47265625 776.21484375 C-74.18518995 772.94642623 -77.80466525 769.57517341 -81.4375 766.21875 C-83.74771735 764.09825883 -86.0978105 762.02948492 -88.46484375 759.97265625 C-92.43827202 756.50827929 -96.29313968 752.93213421 -100.125 749.3125 C-101.37605553 748.13385283 -102.62737154 746.95548209 -103.87890625 745.77734375 C-104.59256348 745.10380859 -105.3062207 744.43027344 -106.04150391 743.73632812 C-107.89987249 741.99565982 -109.76621639 740.26650147 -111.64208984 738.54492188 C-122.4094744 728.63083316 -132.77291911 718.31921142 -143.10839844 707.95947266 C-145.58683685 705.47528238 -148.06981746 702.99568777 -150.55410004 700.51734352 C-152.96559399 698.11035632 -155.37324575 695.69954091 -157.78125 693.2890625 C-158.66051147 692.41182526 -159.53977295 691.53458801 -160.44567871 690.63076782 C-164.8240723 686.2357854 -169.06840798 681.78404871 -173.10427856 677.07133484 C-175.31273214 674.50226223 -177.62841255 672.04147527 -179.9375 669.5625 C-184.23445948 664.91114451 -188.30440142 660.12425159 -192.2734375 655.1875 C-194.25602015 652.75156228 -196.28672005 650.36808745 -198.34350586 647.99487305 C-259.26471661 577.40152093 -294.79758533 490.26700351 -305.8125 398.125 C-305.96356201 396.87436768 -306.11462402 395.62373535 -306.27026367 394.33520508 C-308.95605236 370.44183508 -309.91955208 346.58520011 -309.87817383 322.56274414 C-309.87352234 319.64038789 -309.88056903 316.71844596 -309.89868164 313.79614258 C-310.04304611 290.23194049 -308.89760253 267.05095158 -303.875 243.9375 C-303.61936279 242.7427002 -303.36372559 241.54790039 -303.1003418 240.31689453 C-289.07972912 176.78742989 -255.00756155 113.61688967 -203.33984375 72.6015625 C-201.50942326 71.13413679 -199.70842841 69.6291193 -197.94140625 68.0859375 C-157.34297406 32.72787032 -104.03996438 12.29859885 -51.5625 3.375 C-50.63711426 3.20983887 -49.71172852 3.04467773 -48.75830078 2.87451172 C-32.59476508 0.10370175 -16.35242992 0.06356299 0 0 Z " fill="#FF0606" transform="translate(309.5625,-0.375)"/>
</svg>
